<svg width="213" height="49" viewBox="0 0 213 49" fill="none" xmlns="http://www.w3.org/2000/svg">
<g clip-path="url(#clip0_970_12150)">
<path d="M134.232 34.1461H146.315C146.443 35.7623 147.213 36.9937 148.598 37.8916C150.009 38.7895 151.857 39.2513 154.114 39.2513C156.372 39.2513 157.86 38.8408 159.014 37.9942C160.169 37.1733 160.759 35.9932 160.759 34.5309C160.759 33.0686 160.323 32.2476 159.45 31.6319C158.578 31.0162 157.321 30.5801 155.705 30.3236L148.496 29.0665C139.055 27.3733 134.309 22.8325 134.309 15.3927C134.309 7.95288 136.079 7.08063 139.594 4.23298C143.134 1.41099 147.726 0 153.421 0C159.117 0 163.427 1.35969 166.839 4.07906C170.251 6.79843 171.995 10.3644 172.072 14.8026H160.015C159.963 13.212 159.296 11.955 157.988 10.9801C156.68 10.0052 154.986 9.54346 152.883 9.54346C150.779 9.54346 149.445 9.92827 148.368 10.6979C147.264 11.4675 146.726 12.5194 146.726 13.8791C146.726 15.2387 147.213 16.1367 148.162 16.778C149.137 17.4194 150.599 17.8812 152.549 18.1634L159.758 19.3435C164.145 20.0874 167.454 21.7293 169.738 24.2178C172.021 26.7063 173.175 29.8105 173.175 33.5304C173.175 37.2503 171.405 41.8424 167.839 44.6901C164.299 47.5377 159.63 48.9487 153.858 48.9487C148.085 48.9487 143.621 47.6147 140.107 44.9466C136.592 42.2785 134.642 38.6869 134.232 34.1974V34.1461Z" fill="#0A2D0F"/>
<path d="M91.3899 0.641602H103.217V30.2725C103.217 32.8379 103.961 34.839 105.423 36.25C106.911 37.661 108.912 38.3793 111.477 38.3793C114.043 38.3793 116.146 37.661 117.583 36.2243C119.045 34.7877 119.764 32.8123 119.764 30.2982V0.641602H131.513V30.7343C131.513 36.327 129.743 40.7395 126.177 44.0233C122.637 47.3071 117.763 48.9233 111.477 48.9233C105.192 48.9233 100.42 47.3071 96.7773 44.0746C93.1601 40.8165 91.3643 36.3783 91.3643 30.7343V0.641602H91.3899Z" fill="#0A2D0F"/>
<path d="M56.0889 0.641602H67.9156V37.6866H89.1831V48.2819H56.0889V0.641602Z" fill="#0A2D0F"/>
<path d="M48.9823 5.13113C45.6729 2.12956 41.2604 0.641602 35.7703 0.641602H13.7588V48.2819H25.5855V33.1715H35.7447C36.9248 33.1715 38.0536 33.1201 39.131 32.9662C43.1331 32.4788 46.4426 31.1191 49.008 28.8359C52.2918 25.9626 53.908 21.9605 53.908 16.8809C53.908 11.8013 52.2405 8.10705 48.931 5.13113H48.9823ZM39.7467 21.4217C38.9515 22.1144 37.9509 22.6018 36.6939 22.8327C36.0782 22.961 35.4111 23.0123 34.6928 23.0123H25.5855V11.2369H34.6928C36.8221 11.2369 38.4897 11.75 39.6954 12.7505C40.9269 13.7254 41.5169 15.1877 41.5169 17.0861C41.5169 18.9845 40.9269 20.3955 39.7211 21.4474L39.7467 21.4217Z" fill="#0A2D0F"/>
<path d="M212.812 38.4047V48.5895H177.435V41.2267L191.442 28.7586C194.341 26.1675 196.599 23.9099 198.215 21.9859C199.575 20.3183 200.267 18.5225 200.344 16.5471C200.344 14.6743 199.78 13.212 198.677 12.1602C197.574 11.1084 196.06 10.5953 194.136 10.5953C192.212 10.5953 190.903 11.1853 189.775 12.3398C188.671 13.4686 188.107 14.9565 188.107 16.8293L188.184 17.6503L176.793 17.0345C176.665 12.0063 178.23 7.95287 181.463 4.92564C184.746 1.87276 189.133 0.333496 194.649 0.333496C200.165 0.333496 204.192 1.7958 207.502 4.69475C210.811 7.59371 212.479 11.3393 212.479 15.9058C212.479 20.4722 211.966 20.4722 210.965 22.6529C209.99 24.8078 208.656 26.8089 207.014 28.6817C205.372 30.5288 203.218 32.6068 200.498 34.9414L195.265 39.3539C198.856 38.7382 202.653 38.4304 206.655 38.4304H212.812V38.4047Z" fill="#00E35E"/>
<path d="M39.1565 22.8329V32.9664C38.079 33.0947 36.9502 33.1716 35.7701 33.1716H25.6109V34.3517H25.3287V48.1025H13.8099V34.3517H0.059082V22.8329H13.8099V8.97949H25.3287V22.8329H25.6109V23.0125H34.7182C35.4366 23.0125 36.1036 22.9612 36.7193 22.8329H39.1821H39.1565Z" fill="#0A2D0F"/>
</g>
<defs>
<clipPath id="clip0_970_12150">
<rect width="212.932" height="49" fill="white" transform="translate(0.0341797)"/>
</clipPath>
</defs>
</svg>
